# xmcd
#
# Track frame offsets: 
#        150
#        13298
#        33990
#        51331
#        65000
#        82129
#        94326
#        111764
#        130972
#        154594
#        169497
#        192899
#        205454
#        223015
#        238077
#        254653
#        268567
#
# Disc length: 3823 seconds
#
# Revision: 0
# Processed by: cddbd v1.5.2PL0 Copyright (c) Steve Scherf et al.
# Submitted via: ExactAudioCopyFreeDBPlugin 1.0
#
DISCID=090eed11
DTITLE=Mikko Kuustonen - The Essential Mikko Kuustonen
DYEAR=2011
DGENRE=Folk/Rock
TTITLE0=Enkelit lentää sun uniin
TTITLE1=Taivas varjele
TTITLE2=Kaktusviinaa
TTITLE3=Tunnen tämän ikävän
TTITLE4=Abrakadabra
TTITLE5=Joo mä tuun
TTITLE6=Hopealanka
TTITLE7=Kuume
TTITLE8=Aurora
TTITLE9=Taikuri
TTITLE10=Kultainen sydän ja palava mieli
TTITLE11=Anna kitaran laulaaa
TTITLE12=Kuka tietää
TTITLE13=Tulilientä ja dieseliä
TTITLE14=Onnentyttö
TTITLE15=Saman taivaan alla
TTITLE16=Neiti kaihomieli
EXTD=
EXTT0=
EXTT1=
EXTT2=
EXTT3=
EXTT4=
EXTT5=
EXTT6=
EXTT7=
EXTT8=
EXTT9=
EXTT10=
EXTT11=
EXTT12=
EXTT13=
EXTT14=
EXTT15=
EXTT16=
PLAYORDER=
